<mxfile host="app.diagrams.net" modified="2020-09-25T10:42:35.000Z" agent="5.0 (Windows NT 6.1; WOW64) AppleWebKit/537.36 (KHTML, like Gecko) Chrome/84.0.4147.105 Safari/537.36" etag="EZBzi7tA00ptzMnpqDIy" version="13.7.5" type="github">
  <diagram id="SmJTf4wW6SdyIuIH7xTj" name="Page-1">
    <mxGraphModel dx="454" dy="728" grid="0" gridSize="10" guides="1" tooltips="1" connect="1" arrows="1" fold="1" page="1" pageScale="1" pageWidth="1169" pageHeight="1654" background="#ffffff" math="0" shadow="0">
      <root>
        <mxCell id="0" />
        <mxCell id="1" parent="0" />
        <mxCell id="2EBHpzkCXa870_cZxz3k-1" value="" style="ellipse;html=1;shape=endState;fillColor=#000000;strokeColor=#ff0000;" parent="1" vertex="1">
          <mxGeometry x="1030" y="930" width="30" height="30" as="geometry" />
        </mxCell>
        <mxCell id="2EBHpzkCXa870_cZxz3k-2" value="Début" style="text;html=1;strokeColor=none;fillColor=none;align=center;verticalAlign=middle;whiteSpace=wrap;rounded=0;" parent="1" vertex="1">
          <mxGeometry x="420" y="75" width="40" height="20" as="geometry" />
        </mxCell>
        <mxCell id="2EBHpzkCXa870_cZxz3k-3" value="" style="ellipse;whiteSpace=wrap;html=1;aspect=fixed;fillColor=#000000;" parent="1" vertex="1">
          <mxGeometry x="382.5" y="70" width="30" height="30" as="geometry" />
        </mxCell>
        <mxCell id="2EBHpzkCXa870_cZxz3k-6" value="" style="endArrow=classic;html=1;exitX=0.5;exitY=1;exitDx=0;exitDy=0;strokeColor=#FF0000;" parent="1" source="2EBHpzkCXa870_cZxz3k-3" edge="1">
          <mxGeometry width="50" height="50" relative="1" as="geometry">
            <mxPoint x="427.5" y="350" as="sourcePoint" />
            <mxPoint x="397.5" y="150" as="targetPoint" />
          </mxGeometry>
        </mxCell>
        <mxCell id="2EBHpzkCXa870_cZxz3k-64" style="edgeStyle=orthogonalEdgeStyle;rounded=0;orthogonalLoop=1;jettySize=auto;html=1;exitX=0.5;exitY=1;exitDx=0;exitDy=0;entryX=0.5;entryY=0;entryDx=0;entryDy=0;strokeColor=#000000;" parent="1" source="2EBHpzkCXa870_cZxz3k-7" target="2EBHpzkCXa870_cZxz3k-51" edge="1">
          <mxGeometry relative="1" as="geometry" />
        </mxCell>
        <mxCell id="2EBHpzkCXa870_cZxz3k-67" style="edgeStyle=orthogonalEdgeStyle;rounded=0;orthogonalLoop=1;jettySize=auto;html=1;exitX=0.5;exitY=1;exitDx=0;exitDy=0;strokeColor=#000000;" parent="1" source="2EBHpzkCXa870_cZxz3k-7" target="2EBHpzkCXa870_cZxz3k-11" edge="1">
          <mxGeometry relative="1" as="geometry" />
        </mxCell>
        <mxCell id="2EBHpzkCXa870_cZxz3k-68" style="edgeStyle=orthogonalEdgeStyle;rounded=0;orthogonalLoop=1;jettySize=auto;html=1;exitX=0.5;exitY=1;exitDx=0;exitDy=0;entryX=0.5;entryY=0;entryDx=0;entryDy=0;strokeColor=#000000;" parent="1" source="2EBHpzkCXa870_cZxz3k-7" target="2EBHpzkCXa870_cZxz3k-10" edge="1">
          <mxGeometry relative="1" as="geometry" />
        </mxCell>
        <mxCell id="2EBHpzkCXa870_cZxz3k-69" style="edgeStyle=orthogonalEdgeStyle;rounded=0;orthogonalLoop=1;jettySize=auto;html=1;exitX=0.5;exitY=1;exitDx=0;exitDy=0;entryX=0.5;entryY=0;entryDx=0;entryDy=0;strokeColor=#000000;" parent="1" source="2EBHpzkCXa870_cZxz3k-7" target="2EBHpzkCXa870_cZxz3k-9" edge="1">
          <mxGeometry relative="1" as="geometry" />
        </mxCell>
        <mxCell id="2EBHpzkCXa870_cZxz3k-7" value="Menu Principal" style="rounded=0;whiteSpace=wrap;html=1;fillColor=none;" parent="1" vertex="1">
          <mxGeometry x="342.5" y="150" width="110" height="50" as="geometry" />
        </mxCell>
        <mxCell id="2EBHpzkCXa870_cZxz3k-24" style="edgeStyle=orthogonalEdgeStyle;rounded=0;orthogonalLoop=1;jettySize=auto;html=1;exitX=1;exitY=0.5;exitDx=0;exitDy=0;entryX=0;entryY=0;entryDx=0;entryDy=0;strokeColor=#000000;" parent="1" source="2EBHpzkCXa870_cZxz3k-9" target="gvkK1Dget6mztFScCn8p-2" edge="1">
          <mxGeometry relative="1" as="geometry">
            <Array as="points">
              <mxPoint x="220" y="305" />
              <mxPoint x="220" y="368" />
            </Array>
            <mxPoint x="316.161165235168" y="363.661165235168" as="targetPoint" />
          </mxGeometry>
        </mxCell>
        <mxCell id="2EBHpzkCXa870_cZxz3k-9" value="Création de Compte" style="rounded=0;whiteSpace=wrap;html=1;fillColor=none;" parent="1" vertex="1">
          <mxGeometry x="100" y="280" width="110" height="50" as="geometry" />
        </mxCell>
        <mxCell id="2EBHpzkCXa870_cZxz3k-10" value="Connexion" style="rounded=0;whiteSpace=wrap;html=1;fillColor=none;" parent="1" vertex="1">
          <mxGeometry x="270" y="280" width="110" height="50" as="geometry" />
        </mxCell>
        <mxCell id="uxW8NfflYTEl3ME1Gt97-10" style="edgeStyle=orthogonalEdgeStyle;rounded=0;orthogonalLoop=1;jettySize=auto;html=1;exitX=0.5;exitY=1;exitDx=0;exitDy=0;" parent="1" source="2EBHpzkCXa870_cZxz3k-11" target="2EBHpzkCXa870_cZxz3k-12" edge="1">
          <mxGeometry relative="1" as="geometry">
            <Array as="points">
              <mxPoint x="465" y="370" />
              <mxPoint x="755" y="370" />
            </Array>
          </mxGeometry>
        </mxCell>
        <mxCell id="2EBHpzkCXa870_cZxz3k-11" value="Jouer en tant qu&#39;invité" style="rounded=0;whiteSpace=wrap;html=1;fillColor=none;" parent="1" vertex="1">
          <mxGeometry x="410" y="280" width="110" height="50" as="geometry" />
        </mxCell>
        <mxCell id="2EBHpzkCXa870_cZxz3k-29" style="edgeStyle=orthogonalEdgeStyle;rounded=0;orthogonalLoop=1;jettySize=auto;html=1;exitX=0.5;exitY=1;exitDx=0;exitDy=0;entryX=0.5;entryY=0;entryDx=0;entryDy=0;strokeColor=#000000;" parent="1" source="2EBHpzkCXa870_cZxz3k-12" edge="1">
          <mxGeometry relative="1" as="geometry">
            <mxPoint x="755" y="710" as="targetPoint" />
          </mxGeometry>
        </mxCell>
        <mxCell id="2EBHpzkCXa870_cZxz3k-12" value="Sélection de jeu" style="rounded=0;whiteSpace=wrap;html=1;fillColor=none;" parent="1" vertex="1">
          <mxGeometry x="700" y="610" width="110" height="50" as="geometry" />
        </mxCell>
        <mxCell id="2EBHpzkCXa870_cZxz3k-15" value="" style="endArrow=classic;html=1;exitX=0.5;exitY=1;exitDx=0;exitDy=0;entryX=0.5;entryY=0;entryDx=0;entryDy=0;" parent="1" source="2EBHpzkCXa870_cZxz3k-10" edge="1">
          <mxGeometry width="50" height="50" relative="1" as="geometry">
            <mxPoint x="475" y="340" as="sourcePoint" />
            <mxPoint x="325" y="360" as="targetPoint" />
          </mxGeometry>
        </mxCell>
        <mxCell id="2EBHpzkCXa870_cZxz3k-17" value="[Connexion réussie]" style="text;html=1;strokeColor=none;fillColor=none;align=center;verticalAlign=middle;whiteSpace=wrap;rounded=0;" parent="1" vertex="1">
          <mxGeometry x="230" y="430" width="40" height="20" as="geometry" />
        </mxCell>
        <mxCell id="2EBHpzkCXa870_cZxz3k-23" style="edgeStyle=orthogonalEdgeStyle;rounded=0;orthogonalLoop=1;jettySize=auto;html=1;exitX=0;exitY=0.5;exitDx=0;exitDy=0;entryX=0.5;entryY=1;entryDx=0;entryDy=0;strokeColor=#000000;" parent="1" source="gvkK1Dget6mztFScCn8p-2" target="2EBHpzkCXa870_cZxz3k-9" edge="1">
          <mxGeometry relative="1" as="geometry">
            <mxPoint x="312.5" y="372.5" as="sourcePoint" />
          </mxGeometry>
        </mxCell>
        <mxCell id="2EBHpzkCXa870_cZxz3k-25" value="[Echec de connexion]" style="text;html=1;strokeColor=none;fillColor=none;align=center;verticalAlign=middle;whiteSpace=wrap;rounded=0;" parent="1" vertex="1">
          <mxGeometry x="190" y="385" width="40" height="20" as="geometry" />
        </mxCell>
        <mxCell id="2EBHpzkCXa870_cZxz3k-30" value="Poser une carte" style="rounded=0;whiteSpace=wrap;html=1;fillColor=none;" parent="1" vertex="1">
          <mxGeometry x="570" y="760" width="110" height="50" as="geometry" />
        </mxCell>
        <mxCell id="2EBHpzkCXa870_cZxz3k-31" value="Piocher une carte" style="rounded=0;whiteSpace=wrap;html=1;fillColor=none;" parent="1" vertex="1">
          <mxGeometry x="700" y="760" width="110" height="50" as="geometry" />
        </mxCell>
        <mxCell id="2EBHpzkCXa870_cZxz3k-32" value="Passer son tour" style="rounded=0;whiteSpace=wrap;html=1;fillColor=none;" parent="1" vertex="1">
          <mxGeometry x="830" y="760" width="110" height="50" as="geometry" />
        </mxCell>
        <mxCell id="2EBHpzkCXa870_cZxz3k-37" style="edgeStyle=orthogonalEdgeStyle;rounded=0;orthogonalLoop=1;jettySize=auto;html=1;exitX=0.5;exitY=1;exitDx=0;exitDy=0;entryX=0.5;entryY=0;entryDx=0;entryDy=0;strokeColor=#000000;" parent="1" source="2EBHpzkCXa870_cZxz3k-33" target="2EBHpzkCXa870_cZxz3k-36" edge="1">
          <mxGeometry relative="1" as="geometry" />
        </mxCell>
        <mxCell id="2EBHpzkCXa870_cZxz3k-33" value="" style="rounded=0;whiteSpace=wrap;html=1;fillColor=none;" parent="1" vertex="1">
          <mxGeometry x="560" y="710" width="390" height="115" as="geometry" />
        </mxCell>
        <mxCell id="2EBHpzkCXa870_cZxz3k-34" value="Menu de jeu (joueur)" style="text;html=1;strokeColor=none;fillColor=none;align=center;verticalAlign=middle;whiteSpace=wrap;rounded=0;" parent="1" vertex="1">
          <mxGeometry x="695" y="720" width="120" height="20" as="geometry" />
        </mxCell>
        <mxCell id="2EBHpzkCXa870_cZxz3k-50" style="edgeStyle=orthogonalEdgeStyle;rounded=0;orthogonalLoop=1;jettySize=auto;html=1;exitX=1;exitY=0.5;exitDx=0;exitDy=0;entryX=0.75;entryY=1;entryDx=0;entryDy=0;strokeColor=#000000;" parent="1" source="2EBHpzkCXa870_cZxz3k-36" target="2EBHpzkCXa870_cZxz3k-33" edge="1">
          <mxGeometry relative="1" as="geometry">
            <Array as="points">
              <mxPoint x="853" y="895" />
              <mxPoint x="853" y="848" />
            </Array>
          </mxGeometry>
        </mxCell>
        <mxCell id="2EBHpzkCXa870_cZxz3k-54" style="edgeStyle=orthogonalEdgeStyle;rounded=0;orthogonalLoop=1;jettySize=auto;html=1;exitX=0.5;exitY=1;exitDx=0;exitDy=0;entryX=0.5;entryY=0;entryDx=0;entryDy=0;strokeColor=#000000;" parent="1" source="2EBHpzkCXa870_cZxz3k-36" target="2EBHpzkCXa870_cZxz3k-53" edge="1">
          <mxGeometry relative="1" as="geometry" />
        </mxCell>
        <mxCell id="2EBHpzkCXa870_cZxz3k-36" value="Affichage du reste du tour" style="rounded=0;whiteSpace=wrap;html=1;fillColor=none;" parent="1" vertex="1">
          <mxGeometry x="700" y="870" width="110" height="50" as="geometry" />
        </mxCell>
        <mxCell id="2EBHpzkCXa870_cZxz3k-65" style="edgeStyle=orthogonalEdgeStyle;rounded=0;orthogonalLoop=1;jettySize=auto;html=1;exitX=1;exitY=0.5;exitDx=0;exitDy=0;entryX=0.5;entryY=0;entryDx=0;entryDy=0;strokeColor=#000000;" parent="1" source="2EBHpzkCXa870_cZxz3k-51" target="2EBHpzkCXa870_cZxz3k-1" edge="1">
          <mxGeometry relative="1" as="geometry">
            <mxPoint x="695" y="820" as="targetPoint" />
          </mxGeometry>
        </mxCell>
        <mxCell id="2EBHpzkCXa870_cZxz3k-51" value="Quitter l&#39;application" style="rounded=0;whiteSpace=wrap;html=1;fillColor=none;" parent="1" vertex="1">
          <mxGeometry x="540" y="280" width="110" height="50" as="geometry" />
        </mxCell>
        <mxCell id="2EBHpzkCXa870_cZxz3k-52" value="[Début de partie]" style="text;html=1;strokeColor=none;fillColor=none;align=center;verticalAlign=middle;whiteSpace=wrap;rounded=0;" parent="1" vertex="1">
          <mxGeometry x="760" y="674.5" width="110" height="20" as="geometry" />
        </mxCell>
        <mxCell id="2EBHpzkCXa870_cZxz3k-57" style="edgeStyle=orthogonalEdgeStyle;rounded=0;orthogonalLoop=1;jettySize=auto;html=1;exitX=0.5;exitY=1;exitDx=0;exitDy=0;entryX=0.5;entryY=0;entryDx=0;entryDy=0;strokeColor=#000000;" parent="1" source="2EBHpzkCXa870_cZxz3k-53" target="2EBHpzkCXa870_cZxz3k-55" edge="1">
          <mxGeometry relative="1" as="geometry" />
        </mxCell>
        <mxCell id="2EBHpzkCXa870_cZxz3k-58" style="edgeStyle=orthogonalEdgeStyle;rounded=0;orthogonalLoop=1;jettySize=auto;html=1;exitX=0.5;exitY=1;exitDx=0;exitDy=0;strokeColor=#000000;" parent="1" source="2EBHpzkCXa870_cZxz3k-53" target="2EBHpzkCXa870_cZxz3k-56" edge="1">
          <mxGeometry relative="1" as="geometry" />
        </mxCell>
        <mxCell id="2EBHpzkCXa870_cZxz3k-60" style="edgeStyle=orthogonalEdgeStyle;rounded=0;orthogonalLoop=1;jettySize=auto;html=1;exitX=0.5;exitY=1;exitDx=0;exitDy=0;entryX=0.5;entryY=0;entryDx=0;entryDy=0;strokeColor=#000000;" parent="1" source="2EBHpzkCXa870_cZxz3k-53" target="2EBHpzkCXa870_cZxz3k-59" edge="1">
          <mxGeometry relative="1" as="geometry" />
        </mxCell>
        <mxCell id="2EBHpzkCXa870_cZxz3k-63" style="edgeStyle=orthogonalEdgeStyle;rounded=0;orthogonalLoop=1;jettySize=auto;html=1;exitX=0.5;exitY=1;exitDx=0;exitDy=0;entryX=0.5;entryY=0;entryDx=0;entryDy=0;strokeColor=#000000;" parent="1" source="2EBHpzkCXa870_cZxz3k-53" target="2EBHpzkCXa870_cZxz3k-62" edge="1">
          <mxGeometry relative="1" as="geometry" />
        </mxCell>
        <mxCell id="2EBHpzkCXa870_cZxz3k-53" value="Menu de fin de partie" style="rounded=0;whiteSpace=wrap;html=1;fillColor=none;" parent="1" vertex="1">
          <mxGeometry x="700" y="960" width="110" height="50" as="geometry" />
        </mxCell>
        <mxCell id="2EBHpzkCXa870_cZxz3k-55" value="Afficher les scores" style="rounded=0;whiteSpace=wrap;html=1;fillColor=none;" parent="1" vertex="1">
          <mxGeometry x="632.5" y="1050" width="110" height="50" as="geometry" />
        </mxCell>
        <mxCell id="2EBHpzkCXa870_cZxz3k-56" value="Enregistrer les scores" style="rounded=0;whiteSpace=wrap;html=1;fillColor=none;" parent="1" vertex="1">
          <mxGeometry x="767.5" y="1050" width="110" height="50" as="geometry" />
        </mxCell>
        <mxCell id="2EBHpzkCXa870_cZxz3k-61" style="edgeStyle=orthogonalEdgeStyle;rounded=0;orthogonalLoop=1;jettySize=auto;html=1;exitX=0;exitY=0.5;exitDx=0;exitDy=0;entryX=0;entryY=0.5;entryDx=0;entryDy=0;strokeColor=#000000;" parent="1" source="2EBHpzkCXa870_cZxz3k-59" target="2EBHpzkCXa870_cZxz3k-12" edge="1">
          <mxGeometry relative="1" as="geometry" />
        </mxCell>
        <mxCell id="2EBHpzkCXa870_cZxz3k-59" value="Rejouer" style="rounded=0;whiteSpace=wrap;html=1;fillColor=none;" parent="1" vertex="1">
          <mxGeometry x="500" y="1050" width="110" height="50" as="geometry" />
        </mxCell>
        <mxCell id="2EBHpzkCXa870_cZxz3k-66" style="edgeStyle=orthogonalEdgeStyle;rounded=0;orthogonalLoop=1;jettySize=auto;html=1;exitX=1;exitY=0.5;exitDx=0;exitDy=0;entryX=0.5;entryY=1;entryDx=0;entryDy=0;strokeColor=#000000;" parent="1" source="2EBHpzkCXa870_cZxz3k-62" edge="1">
          <mxGeometry relative="1" as="geometry">
            <mxPoint x="1045" y="960" as="targetPoint" />
          </mxGeometry>
        </mxCell>
        <mxCell id="2EBHpzkCXa870_cZxz3k-62" value="Quitter l&#39;application" style="rounded=0;whiteSpace=wrap;html=1;fillColor=none;" parent="1" vertex="1">
          <mxGeometry x="900" y="1050" width="110" height="50" as="geometry" />
        </mxCell>
        <mxCell id="2EBHpzkCXa870_cZxz3k-71" value="Fin" style="text;html=1;strokeColor=none;fillColor=none;align=center;verticalAlign=middle;whiteSpace=wrap;rounded=0;" parent="1" vertex="1">
          <mxGeometry x="1070" y="825" width="40" height="20" as="geometry" />
        </mxCell>
        <mxCell id="uxW8NfflYTEl3ME1Gt97-8" style="edgeStyle=orthogonalEdgeStyle;rounded=0;orthogonalLoop=1;jettySize=auto;html=1;exitX=0.5;exitY=1;exitDx=0;exitDy=0;" parent="1" source="gvkK1Dget6mztFScCn8p-2" target="uxW8NfflYTEl3ME1Gt97-2" edge="1">
          <mxGeometry relative="1" as="geometry">
            <Array as="points">
              <mxPoint x="325" y="470" />
              <mxPoint x="505" y="470" />
            </Array>
          </mxGeometry>
        </mxCell>
        <mxCell id="uxW8NfflYTEl3ME1Gt97-9" style="edgeStyle=orthogonalEdgeStyle;rounded=0;orthogonalLoop=1;jettySize=auto;html=1;exitX=0.5;exitY=1;exitDx=0;exitDy=0;entryX=0.5;entryY=0;entryDx=0;entryDy=0;" parent="1" source="gvkK1Dget6mztFScCn8p-2" target="uxW8NfflYTEl3ME1Gt97-3" edge="1">
          <mxGeometry relative="1" as="geometry">
            <Array as="points">
              <mxPoint x="325" y="470" />
              <mxPoint x="285" y="470" />
            </Array>
          </mxGeometry>
        </mxCell>
        <mxCell id="uxW8NfflYTEl3ME1Gt97-17" style="edgeStyle=orthogonalEdgeStyle;rounded=0;orthogonalLoop=1;jettySize=auto;html=1;exitX=0.5;exitY=1;exitDx=0;exitDy=0;" parent="1" source="gvkK1Dget6mztFScCn8p-2" target="uxW8NfflYTEl3ME1Gt97-15" edge="1">
          <mxGeometry relative="1" as="geometry">
            <Array as="points">
              <mxPoint x="325" y="470" />
              <mxPoint x="85" y="470" />
            </Array>
          </mxGeometry>
        </mxCell>
        <mxCell id="gvkK1Dget6mztFScCn8p-2" value="" style="rhombus;whiteSpace=wrap;html=1;" parent="1" vertex="1">
          <mxGeometry x="310" y="360" width="30" height="30" as="geometry" />
        </mxCell>
        <mxCell id="uxW8NfflYTEl3ME1Gt97-12" style="edgeStyle=orthogonalEdgeStyle;rounded=0;orthogonalLoop=1;jettySize=auto;html=1;exitX=0.5;exitY=1;exitDx=0;exitDy=0;entryX=0.5;entryY=0;entryDx=0;entryDy=0;" parent="1" source="uxW8NfflYTEl3ME1Gt97-2" target="2EBHpzkCXa870_cZxz3k-12" edge="1">
          <mxGeometry relative="1" as="geometry" />
        </mxCell>
        <mxCell id="uxW8NfflYTEl3ME1Gt97-2" value="Jouer" style="rounded=0;whiteSpace=wrap;html=1;fillColor=none;" parent="1" vertex="1">
          <mxGeometry x="450" y="500" width="110" height="50" as="geometry" />
        </mxCell>
        <mxCell id="uxW8NfflYTEl3ME1Gt97-18" style="edgeStyle=orthogonalEdgeStyle;rounded=0;orthogonalLoop=1;jettySize=auto;html=1;exitX=0.5;exitY=1;exitDx=0;exitDy=0;entryX=0.5;entryY=0;entryDx=0;entryDy=0;" parent="1" source="uxW8NfflYTEl3ME1Gt97-3" target="uxW8NfflYTEl3ME1Gt97-13" edge="1">
          <mxGeometry relative="1" as="geometry" />
        </mxCell>
        <mxCell id="uxW8NfflYTEl3ME1Gt97-19" style="edgeStyle=orthogonalEdgeStyle;rounded=0;orthogonalLoop=1;jettySize=auto;html=1;exitX=0.5;exitY=1;exitDx=0;exitDy=0;entryX=0.5;entryY=0;entryDx=0;entryDy=0;" parent="1" source="uxW8NfflYTEl3ME1Gt97-3" target="uxW8NfflYTEl3ME1Gt97-14" edge="1">
          <mxGeometry relative="1" as="geometry" />
        </mxCell>
        <mxCell id="uxW8NfflYTEl3ME1Gt97-3" value="Consulter son compte" style="rounded=0;whiteSpace=wrap;html=1;fillColor=none;" parent="1" vertex="1">
          <mxGeometry x="230" y="500" width="110" height="50" as="geometry" />
        </mxCell>
        <mxCell id="uxW8NfflYTEl3ME1Gt97-22" style="edgeStyle=orthogonalEdgeStyle;rounded=0;orthogonalLoop=1;jettySize=auto;html=1;exitX=0.5;exitY=1;exitDx=0;exitDy=0;" parent="1" source="uxW8NfflYTEl3ME1Gt97-13" target="uxW8NfflYTEl3ME1Gt97-21" edge="1">
          <mxGeometry relative="1" as="geometry" />
        </mxCell>
        <mxCell id="uxW8NfflYTEl3ME1Gt97-23" style="edgeStyle=orthogonalEdgeStyle;rounded=0;orthogonalLoop=1;jettySize=auto;html=1;exitX=0.5;exitY=1;exitDx=0;exitDy=0;entryX=0.5;entryY=0;entryDx=0;entryDy=0;" parent="1" source="uxW8NfflYTEl3ME1Gt97-13" target="uxW8NfflYTEl3ME1Gt97-20" edge="1">
          <mxGeometry relative="1" as="geometry" />
        </mxCell>
        <mxCell id="uxW8NfflYTEl3ME1Gt97-13" value="Modifier son compte" style="rounded=0;whiteSpace=wrap;html=1;fillColor=none;" parent="1" vertex="1">
          <mxGeometry x="165" y="590" width="110" height="50" as="geometry" />
        </mxCell>
        <mxCell id="uxW8NfflYTEl3ME1Gt97-14" value="Afficher ses statistiques" style="rounded=0;whiteSpace=wrap;html=1;fillColor=none;" parent="1" vertex="1">
          <mxGeometry x="300" y="590" width="110" height="50" as="geometry" />
        </mxCell>
        <mxCell id="uxW8NfflYTEl3ME1Gt97-16" style="edgeStyle=orthogonalEdgeStyle;rounded=0;orthogonalLoop=1;jettySize=auto;html=1;entryX=0.5;entryY=0;entryDx=0;entryDy=0;" parent="1" source="uxW8NfflYTEl3ME1Gt97-15" target="2EBHpzkCXa870_cZxz3k-1" edge="1">
          <mxGeometry relative="1" as="geometry">
            <Array as="points">
              <mxPoint x="50" y="1190" />
              <mxPoint x="1045" y="1190" />
            </Array>
          </mxGeometry>
        </mxCell>
        <mxCell id="uxW8NfflYTEl3ME1Gt97-15" value="Quitter l&#39;application" style="rounded=0;whiteSpace=wrap;html=1;fillColor=none;" parent="1" vertex="1">
          <mxGeometry x="30" y="500" width="110" height="50" as="geometry" />
        </mxCell>
        <mxCell id="uxW8NfflYTEl3ME1Gt97-20" value="Modifier mdp" style="rounded=0;whiteSpace=wrap;html=1;fillColor=none;" parent="1" vertex="1">
          <mxGeometry x="90" y="674.5" width="110" height="50" as="geometry" />
        </mxCell>
        <mxCell id="uxW8NfflYTEl3ME1Gt97-21" value="Modifier nom" style="rounded=0;whiteSpace=wrap;html=1;fillColor=none;" parent="1" vertex="1">
          <mxGeometry x="240" y="674.5" width="110" height="50" as="geometry" />
        </mxCell>
      </root>
    </mxGraphModel>
  </diagram>
</mxfile>
